<svg width="24" height="22" viewBox="0 0 24 22" fill="none" xmlns="http://www.w3.org/2000/svg">
<path d="M12 20.8204C17.5 16.8802 23 12.4901 23 6.65893C23.0021 5.89255 22.8612 5.1333 22.5855 4.42484C22.3099 3.71637 21.9048 3.07267 21.3937 2.53076C20.8826 1.98884 20.2754 1.5594 19.6072 1.26714C18.939 0.974874 18.2228 0.825547 17.5 0.827746C16.0857 0.827746 14.6871 1.3942 13.6107 2.53545L12 4.24316L10.3893 2.53545C9.87961 1.99192 9.27361 1.56058 8.60614 1.26625C7.93867 0.971914 7.2229 0.820389 6.5 0.820389C5.7771 0.820389 5.06133 0.971914 4.39386 1.26625C3.72639 1.56058 3.12039 1.99192 2.61072 2.53545C2.09931 3.07642 1.69375 3.71918 1.41734 4.42682C1.14092 5.13445 0.999095 5.89302 1 6.65893C1 12.4901 6.5 16.8802 12 20.8204Z" fill="white" fill-opacity="0.5" stroke="#42CA2C" stroke-width="1.5"/>
</svg>
