<svg width="30" height="30" viewBox="0 0 30 30" fill="none" xmlns="http://www.w3.org/2000/svg">
<path d="M15 26.25C21.2132 26.25 26.25 21.2132 26.25 15C26.25 8.7868 21.2132 3.75 15 3.75C8.7868 3.75 3.75 8.7868 3.75 15C3.75 21.2132 8.7868 26.25 15 26.25Z" stroke="#42CA2C" stroke-miterlimit="10"/>
<path d="M4.39062 11.25H25.6092" stroke="#42CA2C" stroke-linecap="round" stroke-linejoin="round"/>
<path d="M4.39062 18.75H25.6091" stroke="#42CA2C" stroke-linecap="round" stroke-linejoin="round"/>
<path d="M15 25.9507C17.5888 25.9507 19.6875 21.0491 19.6875 15.0027C19.6875 8.95627 17.5888 4.05469 15 4.05469C12.4112 4.05469 10.3125 8.95627 10.3125 15.0027C10.3125 21.0491 12.4112 25.9507 15 25.9507Z" stroke="#42CA2C" stroke-miterlimit="10"/>
</svg>
