<svg width="12" height="13" viewBox="0 0 12 13" fill="none" xmlns="http://www.w3.org/2000/svg">
<path fill-rule="evenodd" clip-rule="evenodd" d="M5.66068 1.09452L4.11193 4.42452L0.414432 4.90077C0.342899 4.90971 0.275459 4.93908 0.220187 4.98536C0.164916 5.03164 0.124156 5.09288 0.102788 5.16173C0.0814211 5.23058 0.080352 5.30413 0.0997091 5.37357C0.119066 5.44301 0.158029 5.5054 0.211932 5.55327L2.94943 8.01702L2.21068 11.7108C2.19677 11.7814 2.20347 11.8545 2.22999 11.9214C2.25652 11.9884 2.30174 12.0462 2.36025 12.0881C2.41877 12.13 2.48812 12.1542 2.56001 12.1578C2.6319 12.1614 2.7033 12.1442 2.76568 12.1083L5.99818 10.2333L9.23443 12.1083C9.29682 12.1442 9.36822 12.1614 9.44011 12.1578C9.512 12.1542 9.58134 12.13 9.63986 12.0881C9.69838 12.0462 9.7436 11.9884 9.77012 11.9214C9.79664 11.8545 9.80335 11.7814 9.78943 11.7108L9.05068 8.01702L11.7882 5.55327C11.841 5.50495 11.8789 5.44252 11.8974 5.37336C11.9158 5.3042 11.9141 5.23119 11.8924 5.16297C11.8708 5.09474 11.83 5.03415 11.775 4.98836C11.7199 4.94256 11.653 4.91347 11.5819 4.90452L7.88443 4.42452L6.33943 1.09452C6.3096 1.02905 6.26157 0.973543 6.20106 0.93462C6.14056 0.895696 6.07013 0.875 5.99818 0.875C5.92624 0.875 5.85581 0.895696 5.7953 0.93462C5.7348 0.973543 5.68676 1.02905 5.65693 1.09452H5.66068Z" fill="#222222"/>
</svg>
